<svg width="42" height="43" viewBox="0 0 42 43" fill="none" xmlns="http://www.w3.org/2000/svg">
<g clip-path="url(#clip0_101_37)">
<path d="M32.0325 14.3163C31.7539 14.0455 31.363 13.9225 30.9805 13.9854C30.5972 14.0481 30.2663 14.2887 30.0885 14.6339C29.4771 15.8218 28.7004 16.9133 27.7867 17.8783C27.8778 17.1812 27.9236 16.48 27.9236 15.7769C27.9236 14.4278 27.7428 13.0395 27.3861 11.65C26.213 7.08626 23.1371 3.22672 18.9471 1.06113C18.5823 0.872651 18.1477 0.879269 17.7888 1.07878C17.4299 1.27837 17.1948 1.6443 17.1627 2.05361C16.836 6.20097 14.6998 9.97416 11.2984 12.4081C11.2534 12.4406 11.2087 12.4734 11.164 12.5061C11.0714 12.5738 10.9842 12.6379 10.9026 12.6916C10.8899 12.7001 10.8772 12.7088 10.8648 12.7177C8.72561 14.2493 6.9605 16.291 5.7601 18.6226C4.54034 20.9942 3.92188 23.5392 3.92188 26.1867C3.92188 27.5353 4.10267 28.9236 4.45929 30.3133C6.34123 37.6382 12.933 42.754 20.4894 42.754C29.6242 42.754 37.0559 35.3219 37.0559 26.1867C37.0559 21.6818 35.2719 17.4661 32.0325 14.3163Z" fill="#28A263"/>
<circle cx="19.6829" cy="25.532" r="4.92116" fill="white"/>
</g>
<defs>
<clipPath id="clip0_101_37">
<rect width="41.8298" height="41.8298" fill="white" transform="translate(0 0.924316)"/>
</clipPath>
</defs>
</svg>
