<svg
    width="15"
    height="14"
    viewBox="0 0 15 14"
    fill="none"
    xmlns="http://www.w3.org/2000/svg"
>
    <g clipPath="url(#clip0_222_971)">
    <path
        d="M12.7081 0.116699H2.10462C1.72114 0.116699 1.35336 0.269038 1.08219 0.540202C0.81103 0.811366 0.658691 1.17914 0.658691 1.56263L0.658691 12.1661C0.658691 12.5496 0.81103 12.9174 1.08219 13.1885C1.35336 13.4597 1.72114 13.612 2.10462 13.612H6.23907V9.02392H4.34129V6.86436H6.23907V5.21841C6.23907 3.34624 7.35364 2.3121 9.06074 2.3121C9.87829 2.3121 10.7332 2.4579 10.7332 2.4579V4.29543H9.79123C8.86313 4.29543 8.57364 4.87139 8.57364 5.46211V6.86436H10.6455L10.3142 9.02392H8.57364V13.612H12.7081C13.0916 13.612 13.4594 13.4597 13.7305 13.1885C14.0017 12.9174 14.154 12.5496 14.154 12.1661V1.56263C14.154 1.17914 14.0017 0.811366 13.7305 0.540202C13.4594 0.269038 13.0916 0.116699 12.7081 0.116699Z"
        fill="#005CB1"
    />
    </g>
    <defs>
    <clipPath id="clip0_222_971">
        <rect
        width="13.4953"
        height="13.4953"
        fill="white"
        transform="translate(0.658691 0.116699)"
        />
    </clipPath>
    </defs>
</svg>