<svg
        width="15"
        height="14"
        viewBox="0 0 15 14"
        fill="none"
        xmlns="http://www.w3.org/2000/svg"
      >
        <path
          d="M11.0067 0.116699H3.83728C2.09043 0.116699 0.674316 1.53281 0.674316 3.27967V10.4491C0.674316 12.1959 2.09043 13.612 3.83728 13.612H11.0067C12.7535 13.612 14.1696 12.1959 14.1696 10.4491V3.27967C14.1696 1.53281 12.7535 0.116699 11.0067 0.116699Z"
          fill="url(#paint0_radial_222_967)"
        />
        <path
          d="M11.0067 0.116699H3.83728C2.09043 0.116699 0.674316 1.53281 0.674316 3.27967V10.4491C0.674316 12.1959 2.09043 13.612 3.83728 13.612H11.0067C12.7535 13.612 14.1696 12.1959 14.1696 10.4491V3.27967C14.1696 1.53281 12.7535 0.116699 11.0067 0.116699Z"
          fill="url(#paint1_radial_222_967)"
        />
        <path
          d="M7.42248 1.59277C5.99081 1.59277 5.8111 1.59905 5.24883 1.62461C4.68762 1.65034 4.30453 1.73917 3.96936 1.86953C3.62259 2.00417 3.32849 2.1843 3.03549 2.4774C2.74223 2.77045 2.5621 3.06455 2.42704 3.41116C2.29631 3.74644 2.20738 4.12968 2.18213 4.69064C2.15698 5.25296 2.15039 5.43272 2.15039 6.86444C2.15039 8.29616 2.15672 8.47528 2.18223 9.03755C2.20806 9.59877 2.29689 9.98186 2.42715 10.317C2.56189 10.6638 2.74202 10.9579 3.03513 11.2509C3.32807 11.5442 3.62217 11.7247 3.96868 11.8593C4.30411 11.9897 4.68725 12.0785 5.24836 12.1043C5.81068 12.1298 5.99023 12.1361 7.42184 12.1361C8.85367 12.1361 9.0328 12.1298 9.59507 12.1043C10.1563 12.0785 10.5398 11.9897 10.8752 11.8593C11.2218 11.7247 11.5155 11.5442 11.8084 11.2509C12.1017 10.9579 12.2817 10.6638 12.4169 10.3172C12.5464 9.98186 12.6354 9.59867 12.6618 9.03766C12.687 8.47539 12.6936 8.29616 12.6936 6.86444C12.6936 5.43272 12.687 5.25306 12.6618 4.69074C12.6354 4.12953 12.5464 3.74649 12.4169 3.41132C12.2817 3.06455 12.1017 2.77045 11.8084 2.4774C11.5152 2.1842 11.2219 2.00406 10.8749 1.86959C10.5388 1.73917 10.1555 1.65029 9.59433 1.62461C9.03201 1.59905 8.85298 1.59277 7.42084 1.59277H7.42248ZM6.94956 2.54277C7.08994 2.54256 7.24656 2.54277 7.42248 2.54277C8.83005 2.54277 8.99684 2.54783 9.55268 2.57308C10.0667 2.59659 10.3456 2.68247 10.5315 2.75464C10.7775 2.85016 10.9529 2.96439 11.1373 3.14895C11.3218 3.33346 11.436 3.50916 11.5318 3.75519C11.6039 3.94075 11.6899 4.21972 11.7133 4.73371C11.7386 5.28944 11.744 5.45634 11.744 6.86323C11.744 8.27011 11.7386 8.43707 11.7133 8.99275C11.6898 9.50673 11.6039 9.7857 11.5318 9.97132C11.4362 10.2173 11.3218 10.3925 11.1373 10.5769C10.9528 10.7614 10.7776 10.8756 10.5315 10.9712C10.3458 11.0437 10.0667 11.1293 9.55268 11.1528C8.99695 11.1781 8.83005 11.1836 7.42248 11.1836C6.01485 11.1836 5.848 11.1781 5.29232 11.1528C4.77834 11.1291 4.49937 11.0432 4.31339 10.9711C4.06741 10.8755 3.89166 10.7613 3.70715 10.5768C3.52264 10.3923 3.40846 10.217 3.31268 9.97089C3.24051 9.78528 3.15453 9.50631 3.13112 8.99232C3.10587 8.43659 3.10081 8.26969 3.10081 6.86191C3.10081 5.45412 3.10587 5.28812 3.13112 4.73239C3.15463 4.21841 3.24051 3.93943 3.31268 3.75361C3.40825 3.50758 3.52264 3.33188 3.7072 3.14737C3.89176 2.96287 4.06741 2.84863 4.31344 2.7529C4.49926 2.68041 4.77834 2.59475 5.29232 2.57113C5.77863 2.54915 5.96709 2.54256 6.94956 2.54145V2.54277ZM10.2365 3.41807C9.88722 3.41807 9.60387 3.70115 9.60387 4.05045C9.60387 4.3997 9.88722 4.68305 10.2365 4.68305C10.5857 4.68305 10.8691 4.3997 10.8691 4.05045C10.8691 3.70121 10.5857 3.41786 10.2365 3.41786V3.41807ZM7.42248 4.1572C5.92745 4.1572 4.71529 5.36936 4.71529 6.86444C4.71529 8.35952 5.92745 9.57109 7.42248 9.57109C8.91756 9.57109 10.1293 8.35952 10.1293 6.86444C10.1293 5.36941 8.91745 4.1572 7.42237 4.1572H7.42248ZM7.42248 5.1072C8.39293 5.1072 9.17972 5.89388 9.17972 6.86444C9.17972 7.83489 8.39293 8.62168 7.42248 8.62168C6.45203 8.62168 5.66529 7.83489 5.66529 6.86444C5.66529 5.89388 6.45197 5.1072 7.42248 5.1072Z"
          fill="white"
        />
        <defs>
          <radialGradient
            id="paint0_radial_222_967"
            cx="0"
            cy="0"
            r="1"
            gradient-units="userSpaceOnUse"
            gradient-transform="translate(4.25901 14.6514) rotate(-90) scale(13.3749 12.4397)"
          >
            <stop stop-color="#FFDD55" />
            <stop offset="0.1" stop-color="#FFDD55" />
            <stop offset="0.5" stop-color="#FF543E" />
            <stop offset="1" stop-color="#C837AB" />
          </radialGradient>
          <radialGradient
            id="paint1_radial_222_967"
            cx="0"
            cy="0"
            r="1"
            gradient-units="userSpaceOnUse"
            gradient-transform="translate(-1.5862 1.08884) rotate(78.681) scale(5.97864 24.6442)"
          >
            <stop stop-color="#3771C8" />
            <stop offset="0.128" stop-color="#3771C8" />
            <stop offset="1" stop-color="#6600FF" stop-opacity="0" />
          </radialGradient>
        </defs>
      </svg>