<svg
    width="15"
    height="10"
    viewBox="0 0 15 10"
    fill="none"
    xmlns="http://www.w3.org/2000/svg"
>
    <g clip-path="url(#clip0_222_973)">
    <path
        d="M13.8403 1.85718C13.7629 1.569 13.6119 1.30627 13.4024 1.09517C13.1929 0.88406 12.9321 0.731936 12.646 0.653943C11.5988 0.366211 7.38389 0.366211 7.38389 0.366211C7.38389 0.366211 3.16881 0.37492 2.12155 0.662652C1.83549 0.74065 1.5747 0.892782 1.36515 1.1039C1.15561 1.31502 1.00462 1.57775 0.927216 1.86594C0.610445 3.7405 0.487564 6.59689 0.935915 8.39646C1.01332 8.68464 1.16432 8.94737 1.37386 9.15847C1.58341 9.36958 1.84419 9.52171 2.13025 9.5997C3.17751 9.88743 7.39248 9.88743 7.39248 9.88743C7.39248 9.88743 11.6074 9.88743 12.6546 9.5997C12.9407 9.52171 13.2015 9.36959 13.411 9.15849C13.6206 8.94738 13.7716 8.68465 13.849 8.39646C14.1831 6.51925 14.2861 3.66461 13.8403 1.85718Z"
        fill="#FF0000"
    />
    <path
        d="M6.04248 7.16693L9.53904 5.12668L6.04248 3.08643V7.16693Z"
        fill="white"
    />
    </g>
    <defs>
    <clipPath id="clip0_222_973">
        <rect
        width="13.4953"
        height="9.55919"
        fill="white"
        transform="translate(0.643066 0.366211)"
        />
    </clipPath>
    </defs>
</svg>